<?xml version="1.0" standalone="no"?><!DOCTYPE svg PUBLIC "-//W3C//DTD SVG 1.1//EN" "http://www.w3.org/Graphics/SVG/1.1/DTD/svg11.dtd"><svg t="1742359336071" class="icon" viewBox="0 0 1024 1024" version="1.1" xmlns="http://www.w3.org/2000/svg" p-id="3442" xmlns:xlink="http://www.w3.org/1999/xlink" width="200" height="200"><path d="M488.96 344l-339.968 356.992a32.256 32.256 0 0 0-8.96 22.016c0 8 2.944 15.36 8.96 22.016v0.96c6.016 6.016 13.184 8.96 21.504 8.96 8.32 0 15.488-2.944 21.504-8.96l320-336 320 336c6.016 6.016 13.184 8.96 21.504 8.96 8.32 0 15.488-2.944 21.504-8.96v-0.96a32.256 32.256 0 0 0 8.96-22.016 32.256 32.256 0 0 0-8.96-22.016L534.976 344A31.168 31.168 0 0 0 512 335.04a31.168 31.168 0 0 0-23.04 8.96z" fill="#303133" p-id="3443"></path></svg>